<svg width="108" height="36" viewBox="0 0 108 36" fill="none" xmlns="http://www.w3.org/2000/svg">
<path d="M5.70545 0.499999H13.1626L18.868 35.5H13.3628L12.3618 28.55V28.65H6.10583L5.10487 35.5H0L5.70545 0.499999ZM11.7112 23.9L9.25884 6.6H9.15875L6.75645 23.9H11.7112Z" fill="white"/>
<path d="M21.5389 0.499999H29.6967C32.5328 0.499999 34.6014 1.16667 35.9026 2.5C37.2039 3.8 37.8545 5.81667 37.8545 8.55V10.7C37.8545 14.3333 36.6534 16.6333 34.2511 17.6V17.7C35.5857 18.1 36.5199 18.9167 37.0537 20.15C37.6209 21.3833 37.9046 23.0333 37.9046 25.1V31.25C37.9046 32.25 37.9379 33.0667 38.0046 33.7C38.0714 34.3 38.2382 34.9 38.5051 35.5H32.8998C32.6996 34.9333 32.5661 34.4 32.4994 33.9C32.4327 33.4 32.3993 32.5 32.3993 31.2V24.8C32.3993 23.2 32.1324 22.0833 31.5985 21.45C31.0981 20.8167 30.2139 20.5 28.946 20.5H27.0442V35.5H21.5389V0.499999ZM29.0461 15.5C30.1471 15.5 30.9646 15.2167 31.4984 14.65C32.0656 14.0833 32.3492 13.1333 32.3492 11.8V9.1C32.3492 7.83333 32.1157 6.91667 31.6486 6.35C31.2148 5.78333 30.5142 5.5 29.5466 5.5H27.0442V15.5H29.0461Z" fill="white"/>
<path d="M49.4816 36C46.8458 36 44.8272 35.25 43.4258 33.75C42.0579 32.25 41.3739 30.1333 41.3739 27.4V8.6C41.3739 5.86667 42.0579 3.75 43.4258 2.25C44.8272 0.75 46.8458 0 49.4816 0C52.1175 0 54.1194 0.75 55.4874 2.25C56.8887 3.75 57.5894 5.86667 57.5894 8.6V12.3H52.3844V8.25C52.3844 6.08333 51.4669 5 49.6318 5C47.7967 5 46.8791 6.08333 46.8791 8.25V27.8C46.8791 29.9333 47.7967 31 49.6318 31C51.4669 31 52.3844 29.9333 52.3844 27.8V22.45H57.5894V27.4C57.5894 30.1333 56.8887 32.25 55.4874 33.75C54.1194 35.25 52.1175 36 49.4816 36Z" fill="white"/>
<path d="M65.1372 0.499999H72.5943L78.2998 35.5H72.7945L71.7935 28.55V28.65H65.5376L64.5366 35.5H59.4317L65.1372 0.499999ZM71.1429 23.9L68.6906 6.6H68.5905L66.1882 23.9H71.1429Z" fill="white"/>
<path d="M80.9707 0.499999H86.4759V35.5H80.9707V0.499999Z" fill="white"/>
<path d="M108 0.499999H101.093L95.7383 21.45H95.6382V0.499999H90.7335V35.5H96.3889L102.995 9.95H103.095V35.5H108V0.499999Z" fill="white"/>
</svg>
